<?xml version="1.0" standalone="no"?>
<!DOCTYPE svg PUBLIC "-//W3C//DTD SVG 20010904//EN"
 "http://www.w3.org/TR/2001/REC-SVG-20010904/DTD/svg10.dtd">
<svg version="1.0" xmlns="http://www.w3.org/2000/svg"
 width="558.000000pt" height="558.000000pt" viewBox="0 0 558.000000 558.000000"
 preserveAspectRatio="xMidYMid meet">
<metadata>
Created by potrace 1.14, written by Peter Selinger 2001-2017
</metadata>
<g transform="translate(0.000000,558.000000) scale(0.100000,-0.100000)"
fill="#000000" stroke="none">
<path d="M2708 5015 c-2 -1 -47 -6 -101 -9 -54 -4 -104 -9 -110 -11 -7 -2 -34
-6 -62 -9 -58 -6 -217 -39 -292 -61 -29 -8 -74 -21 -100 -29 -77 -22 -200 -74
-307 -128 -474 -244 -803 -669 -946 -1223 -32 -123 -35 -137 -50 -235 -6 -36
-13 -76 -15 -90 -21 -111 -28 -569 -12 -745 9 -102 39 -286 62 -378 9 -34 18
-73 21 -85 11 -54 78 -240 110 -309 19 -41 34 -76 34 -78 0 -3 25 -48 56 -102
149 -260 364 -484 614 -641 204 -128 514 -240 780 -282 41 -6 86 -13 100 -16
148 -24 532 -25 700 0 14 2 48 7 75 11 28 4 95 18 150 32 55 14 107 26 115 28
52 11 243 86 345 135 583 281 949 813 1001 1455 3 39 7 76 9 83 5 15 69 13
-566 15 l-547 2 -11 -70 c-18 -108 -86 -288 -133 -350 -97 -128 -132 -164
-233 -236 -101 -72 -223 -125 -360 -155 -59 -13 -299 -12 -380 2 -244 43 -437
152 -581 329 -127 158 -200 339 -249 620 -17 102 -24 381 -12 515 61 669 444
1058 1043 1058 412 0 757 -244 872 -614 20 -65 25 -87 38 -174 l6 -35 549 1
c302 0 552 3 555 6 8 9 4 89 -10 188 -74 508 -316 917 -710 1196 -282 200
-607 321 -1006 375 -71 9 -434 21 -442 14z"/>
</g>
</svg>
